<?xml version="1.0" standalone="no"?>
<svg viewBox="0 0 200 200" xmlns="http://www.w3.org/2000/svg">
  <path fill="#E8DAFF" d="M38.5,-70.5C47.9,-61.2,52.1,-46.9,56,-34.3C59.9,-21.7,63.4,-10.8,68,2.6C72.6,16.1,78.1,32.2,72.6,42C67.1,51.7,50.4,55.1,36.5,63.3C22.5,71.5,11.3,84.5,-1.6,87.2C-14.4,90,-28.9,82.5,-39.8,72.6C-50.7,62.6,-58.1,50.2,-63.3,37.7C-68.6,25.2,-71.7,12.6,-73.4,-1C-75.1,-14.5,-75.3,-29.1,-70.3,-42C-65.3,-55,-55.1,-66.4,-42.5,-73.9C-30,-81.4,-15,-85,-0.2,-84.6C14.5,-84.2,29.1,-79.9,38.5,-70.5Z" transform="translate(100 100)" />
</svg>
