<svg xmlns="http://www.w3.org/2000/svg" viewBox="0 0 1440 320">
    <defs>
        <linearGradient id="grad1" x1="0%" y1="0%" x2="100%" y2="0%">
            <stop offset="0%" style="stop-color:rgba(90,103,216,1);stop-opacity:1" />
            <stop offset="100%" style="stop-color: rgba(173,29,253,0.5228466386554622);stop-opacity:1" />
        </linearGradient>
    </defs>
    <path fill="url(#grad1)" fill-opacity="0.2" d="M0,128L48,160C96,192,192,256,288,282.7C384,309,480,299,576,266.7C672,235,768,181,864,144C960,107,1056,85,1152,90.7C1248,96,1344,128,1392,144L1440,160L1440,0L1392,0C1344,0,1248,0,1152,0C1056,0,960,0,864,0C768,0,672,0,576,0C480,0,384,0,288,0C192,0,96,0,48,0L0,0Z"></path>
</svg>